HIERARCHY
ROOT Hips
{
	OFFSET 0.000000 103.266502 0.000000
	CHANNELS 6 Xposition Yposition Zposition Xrotation Yrotation Zrotation 
	JOINT Spine
	{
		OFFSET -0.002400 12.777504 0.315300
		CHANNELS 3 Xrotation Yrotation Zrotation
		JOINT Spine1
		{
			OFFSET -0.002067 5.816869 0.032633
			CHANNELS 3 Xrotation Yrotation Zrotation
			JOINT Spine1_split
			{
				OFFSET -0.002067 5.816869 0.032633
				CHANNELS 3 Xrotation Yrotation Zrotation
				JOINT Spine2
				{
					OFFSET -0.002067 5.816869 0.032633
					CHANNELS 3 Xrotation Yrotation Zrotation
					JOINT Neck
					{
						OFFSET -0.003700 21.199493 -0.826900
						CHANNELS 3 Xrotation Yrotation Zrotation
						JOINT Head
						{
							OFFSET 0.000000 20.442200 4.834800
							CHANNELS 3 Xrotation Yrotation Zrotation
							JOINT HeadTop_End
							{
								OFFSET 0.000000 34.668396 4.968400
								CHANNELS 3 Xrotation Yrotation Zrotation
								End Site
								{
									OFFSET 0.000000 0.000000 0.000000
								}
							}
						}
					}
					JOINT LeftShoulder
					{
						OFFSET 3.288150 8.794197 -1.372250
						CHANNELS 3 Xrotation Yrotation Zrotation
						JOINT LeftShoulder_split
						{
							OFFSET 3.288150 8.794197 -1.372250
							CHANNELS 3 Xrotation Yrotation Zrotation
							JOINT LeftArm
							{
								OFFSET 11.953299 -2.279007 -0.146200
								CHANNELS 3 Xrotation Yrotation Zrotation
								JOINT LeftForeArm
								{
									OFFSET 18.448900 0.000000 0.000000
									CHANNELS 3 Xrotation Yrotation Zrotation
									JOINT LeftHand
									{
										OFFSET 29.527798 0.000000 0.000000
										CHANNELS 3 Xrotation Yrotation Zrotation
										JOINT LeftHandThumb1
										{
											OFFSET 10.739754 -2.369614 9.225399
											CHANNELS 3 Xrotation Yrotation Zrotation
											JOINT LeftHandThumb2
											{
												OFFSET 4.926170 -2.844131 2.844125
												CHANNELS 3 Xrotation Yrotation Zrotation
												JOINT LeftHandThumb3
												{
													OFFSET 4.614891 -2.664413 2.664409
													CHANNELS 3 Xrotation Yrotation Zrotation
													JOINT LeftHandThumb4
													{
														OFFSET 4.432465 -2.559082 2.559083
														CHANNELS 3 Xrotation Yrotation Zrotation
														End Site
														{
															OFFSET 0.000000 0.000000 0.000000
														}
													}
												}
											}
										}
										JOINT LeftHandIndex1
										{
											OFFSET 26.467674 0.187653 6.405298
											CHANNELS 3 Xrotation Yrotation Zrotation
											JOINT LeftHandIndex2
											{
												OFFSET 8.792900 0.000000 0.000000
												CHANNELS 3 Xrotation Yrotation Zrotation
												JOINT LeftHandIndex3
												{
													OFFSET 10.075203 0.000000 0.000000
													CHANNELS 3 Xrotation Yrotation Zrotation
													End Site
													{
														OFFSET 0.000000 0.000000 0.000000
													}
												}
											}
										}
										JOINT LeftHandMiddle1
										{
											OFFSET 25.764404 0.000000 0.000000
											CHANNELS 3 Xrotation Yrotation Zrotation
											JOINT LeftHandMiddle2
											{
												OFFSET 9.393974 0.000000 0.000000
												CHANNELS 3 Xrotation Yrotation Zrotation
												JOINT LeftHandMiddle3
												{
													OFFSET 10.771950 0.000000 0.000000
													CHANNELS 3 Xrotation Yrotation Zrotation
													End Site
													{
														OFFSET 0.000000 0.000000 0.000000
													}
												}
											}
										}
										JOINT LeftHandRing1
										{
											OFFSET 24.660927 0.144547 -6.225808
											CHANNELS 3 Xrotation Yrotation Zrotation
											JOINT LeftHandRing2
											{
												OFFSET 9.393799 0.000000 0.000000
												CHANNELS 3 Xrotation Yrotation Zrotation
												JOINT LeftHandRing3
												{
													OFFSET 9.928497 0.000000 0.000000
													CHANNELS 3 Xrotation Yrotation Zrotation
													End Site
													{
														OFFSET 0.000000 0.000000 0.000000
													}
												}
											}
										}
										JOINT LeftHandPinky1
										{
											OFFSET 23.655350 0.125290 -12.815412
											CHANNELS 3 Xrotation Yrotation Zrotation
											JOINT LeftHandPinky2
											{
												OFFSET 8.425102 0.000000 0.000000
												CHANNELS 3 Xrotation Yrotation Zrotation
												JOINT LeftHandPinky3
												{
													OFFSET 8.147003 0.000000 0.000000
													CHANNELS 3 Xrotation Yrotation Zrotation
													End Site
													{
														OFFSET 0.000000 0.000000 0.000000
													}
												}
											}
										}
									}
								}
							}
						}
					}
					JOINT RightShoulder
					{
						OFFSET -3.249400 8.794197 -1.372250
						CHANNELS 3 Xrotation Yrotation Zrotation
						JOINT RightShoulder_split
						{
							OFFSET -3.249400 8.794197 -1.372250
							CHANNELS 3 Xrotation Yrotation Zrotation
							JOINT RightArm
							{
								OFFSET -11.953299 -2.279007 -0.146200
								CHANNELS 3 Xrotation Yrotation Zrotation
								JOINT RightForeArm
								{
									OFFSET -18.448900 0.000000 0.000000
									CHANNELS 3 Xrotation Yrotation Zrotation
									JOINT RightHand
									{
										OFFSET -29.527802 0.000000 0.000000
										CHANNELS 3 Xrotation Yrotation Zrotation
										JOINT RightHandThumb1
										{
											OFFSET -10.739754 -2.369614 9.225399
											CHANNELS 3 Xrotation Yrotation Zrotation
											JOINT RightHandThumb2
											{
												OFFSET -4.926170 -2.844131 2.844125
												CHANNELS 3 Xrotation Yrotation Zrotation
												JOINT RightHandThumb3
												{
													OFFSET -4.614891 -2.664413 2.664409
													CHANNELS 3 Xrotation Yrotation Zrotation
													JOINT RightHandThumb4
													{
														OFFSET -4.432465 -2.559082 2.559083
														CHANNELS 3 Xrotation Yrotation Zrotation
														End Site
														{
															OFFSET 0.000000 0.000000 0.000000
														}
													}
												}
											}
										}
										JOINT RightHandIndex1
										{
											OFFSET -26.467674 0.187653 6.405298
											CHANNELS 3 Xrotation Yrotation Zrotation
											JOINT RightHandIndex2
											{
												OFFSET -8.792900 0.000000 0.000000
												CHANNELS 3 Xrotation Yrotation Zrotation
												JOINT RightHandIndex3
												{
													OFFSET -10.075203 0.000000 0.000000
													CHANNELS 3 Xrotation Yrotation Zrotation
													End Site
													{
														OFFSET 0.000000 0.000000 0.000000
													}
												}
											}
										}
										JOINT RightHandMiddle1
										{
											OFFSET -25.764404 0.000000 0.000000
											CHANNELS 3 Xrotation Yrotation Zrotation
											JOINT RightHandMiddle2
											{
												OFFSET -9.393974 0.000000 0.000000
												CHANNELS 3 Xrotation Yrotation Zrotation
												JOINT RightHandMiddle3
												{
													OFFSET -10.771950 0.000000 0.000000
													CHANNELS 3 Xrotation Yrotation Zrotation
													End Site
													{
														OFFSET 0.000000 0.000000 0.000000
													}
												}
											}
										}
										JOINT RightHandRing1
										{
											OFFSET -24.660927 0.144547 -6.225808
											CHANNELS 3 Xrotation Yrotation Zrotation
											JOINT RightHandRing2
											{
												OFFSET -9.393799 0.000000 0.000000
												CHANNELS 3 Xrotation Yrotation Zrotation
												JOINT RightHandRing3
												{
													OFFSET -9.928497 0.000000 0.000000
													CHANNELS 3 Xrotation Yrotation Zrotation
													End Site
													{
														OFFSET 0.000000 0.000000 0.000000
													}
												}
											}
										}
										JOINT RightHandPinky1
										{
											OFFSET -23.655350 0.125290 -12.815412
											CHANNELS 3 Xrotation Yrotation Zrotation
											JOINT RightHandPinky2
											{
												OFFSET -8.425102 0.000000 0.000000
												CHANNELS 3 Xrotation Yrotation Zrotation
												JOINT RightHandPinky3
												{
													OFFSET -8.147003 0.000000 0.000000
													CHANNELS 3 Xrotation Yrotation Zrotation
													End Site
													{
														OFFSET 0.000000 0.000000 0.000000
													}
												}
											}
										}
									}
								}
							}
						}
					}
				}
			}
		}
	}
	JOINT LeftUpLeg
	{
		OFFSET 11.394100 -6.187798 -0.413800
		CHANNELS 3 Xrotation Yrotation Zrotation
		JOINT LeftLeg
		{
			OFFSET 0.430247 -32.302673 3.732800
			CHANNELS 3 Xrotation Yrotation Zrotation
			JOINT LeftFoot
			{
				OFFSET -0.430247 -48.264931 -6.423300
				CHANNELS 3 Xrotation Yrotation Zrotation
				JOINT LeftToeBase
				{
					OFFSET 4.230900 -16.068199 23.438400
					CHANNELS 3 Xrotation Yrotation Zrotation
					JOINT LeftToe_End
					{
						OFFSET 4.510700 0.695400 19.974600
						CHANNELS 3 Xrotation Yrotation Zrotation
						End Site
						{
							OFFSET 0.000000 0.000000 0.000000
						}
					}
				}
			}
		}
	}
	JOINT RightUpLeg
	{
		OFFSET -11.333700 -6.187798 -0.413800
		CHANNELS 3 Xrotation Yrotation Zrotation
		JOINT RightLeg
		{
			OFFSET -0.430392 -32.302628 3.733000
			CHANNELS 3 Xrotation Yrotation Zrotation
			JOINT RightFoot
			{
				OFFSET 0.430392 -48.264973 -6.423500
				CHANNELS 3 Xrotation Yrotation Zrotation
				JOINT RightToeBase
				{
					OFFSET -4.230900 -16.068199 23.438400
					CHANNELS 3 Xrotation Yrotation Zrotation
					JOINT RightToe_End
					{
						OFFSET -4.510700 0.695400 19.974600
						CHANNELS 3 Xrotation Yrotation Zrotation
						End Site
						{
							OFFSET 0.000000 0.000000 0.000000
						}
					}
				}
			}
		}
	}
}
MOTION
Frames: 5
Frame Time: 0.016667
-0.399489 90.655861 -0.215288 -10.682090 -53.631431 -2.376669 6.703609 0.912708 -2.694293 13.440115 1.505918 -5.282123 0.000000 0.000000 0.000000 13.440113 1.505939 -5.282130 3.996210 2.607471 -0.466375 -8.638514 40.681320 -5.376922 0.000001 -0.000000 -0.000000 -0.177273 -6.033942 5.204524 0.000000 0.000000 0.000000 -21.071653 17.785760 -57.231480 -0.000000 -126.318775 0.000011 -6.641491 -5.398316 -3.626838 -2.154154 6.800155 9.892485 25.836137 36.182418 -25.085234 4.659079 20.247623 19.841565 0.000003 0.000000 -0.000002 20.887352 7.645976 -92.409604 7.469765 5.623454 -106.086833 0.000002 -0.000002 -0.000001 12.668629 7.118935 -99.980466 7.120945 5.712065 -102.556001 -0.000001 0.000000 -0.000000 5.682282 8.252719 -95.779476 8.216140 5.353269 -113.878760 0.000001 0.000000 0.000000 -3.644675 8.906853 -93.940018 7.168189 5.701381 -103.031068 0.000001 -0.000001 -0.000000 10.920045 26.931036 3.130402 0.000000 0.000000 0.000000 -46.478170 38.185863 48.496075 0.000082 110.564493 -0.000119 -26.511564 16.043006 15.588628 -8.123088 -3.695108 -18.700513 26.149328 -37.962099 25.226218 5.914712 -26.474927 -20.697065 -0.000001 -0.000000 -0.000001 19.570623 -6.576497 91.648516 5.944063 -4.476220 106.057647 -0.000000 0.000000 0.000002 11.200848 -5.955880 99.192686 5.666697 -4.546671 102.532723 -0.000002 0.000001 -0.000003 4.287414 -6.986215 95.001600 6.537649 -4.261400 113.838141 -0.000002 0.000001 -0.000000 -5.006105 -7.516083 93.188144 5.704257 -4.538183 103.006964 0.000004 0.000000 0.000004 -28.254681 13.141444 21.564792 40.274016 -3.206600 -0.745671 -2.663459 1.105720 -15.302144 -2.483930 0.000007 0.000005 0.000000 -0.000002 -0.000000 -29.747192 1.372610 -19.997045 50.789355 2.520742 -8.143356 -13.037195 -2.720424 16.581570 -2.290963 -0.000002 -0.000006 -0.000000 -0.000000 0.000000 
-0.992815 90.697502 -0.923563 -10.904836 -53.138073 -2.001517 6.885003 0.464387 -3.297690 13.428630 1.385312 -5.296942 0.000000 0.000000 0.000000 13.420774 1.411920 -5.309464 4.071266 2.649584 -0.515531 -6.896901 40.845160 -6.341600 0.000000 0.000000 0.000001 -0.474789 -6.155471 3.198671 0.000000 0.000000 0.000000 -17.792050 18.997992 -56.885992 -0.000010 -127.660662 -0.000009 -8.813702 -2.100042 4.977248 -2.188147 6.630864 9.840824 25.854669 36.200064 -25.080875 4.657100 20.274477 19.846868 0.000003 -0.000001 0.000001 20.610395 7.814799 -91.789259 7.445544 5.630336 -105.840010 0.000003 -0.000000 -0.000000 12.580241 7.208617 -99.250203 7.098230 5.717036 -102.328050 0.000002 -0.000001 0.000002 5.709290 8.240803 -95.092817 8.194822 5.362623 -113.650366 -0.000001 -0.000000 0.000001 -3.440385 8.797290 -93.391724 7.145240 5.706629 -102.800310 -0.000002 -0.000003 0.000001 10.865818 26.827600 2.963925 0.000000 0.000000 0.000000 -46.847878 38.723594 50.356567 0.000049 107.879484 -0.000059 -24.744597 13.727465 13.795276 -8.127550 -3.556522 -18.647076 26.048217 -37.885051 25.176149 5.904378 -26.366004 -20.675932 0.000003 0.000001 -0.000001 19.390038 -6.733578 91.056161 5.924121 -4.481896 105.802328 -0.000004 0.000003 0.000000 11.102790 -6.063354 98.288546 5.648053 -4.550760 102.297676 0.000001 -0.000000 -0.000001 4.274410 -6.978788 94.402442 6.520057 -4.269106 113.601646 0.000002 0.000000 -0.000001 -4.791099 -7.407640 92.634939 5.686479 -4.542230 102.782367 0.000003 -0.000001 0.000003 -27.261389 13.018977 20.837910 38.871426 -3.783915 -0.238615 -1.959407 1.900398 -15.848435 -3.903661 0.000007 0.000002 -0.000000 -0.000000 -0.000000 -29.948385 1.261914 -19.924908 51.830242 2.128035 -7.944649 -14.150116 -3.059580 14.587727 -2.008431 0.000000 -0.000001 -0.000000 0.000000 -0.000000 
-1.533912 90.789642 -1.899137 -10.731152 -52.087887 -1.408425 7.705813 0.247197 -3.930445 13.471028 1.247503 -5.375650 0.000000 0.000000 0.000000 13.463745 1.291644 -5.383118 3.970764 2.575122 -0.513152 -6.939619 39.500302 -7.024649 0.000001 0.000000 -0.000000 -0.604231 -6.510264 2.042938 0.000000 0.000000 0.000000 -15.274311 19.486414 -56.458077 0.000012 -128.879618 0.000013 -13.542285 1.471572 15.982701 -2.260593 6.272417 9.731076 25.893594 36.237224 -25.070923 4.652663 20.331252 19.858017 0.000005 -0.000000 0.000002 20.016831 8.154956 -90.469332 7.394003 5.644624 -105.315404 -0.000001 0.000001 -0.000001 12.388802 7.393792 -97.702045 7.049939 5.727333 -101.843755 0.000001 -0.000001 0.000002 5.767025 8.220506 -93.638233 8.149365 5.382215 -113.164855 -0.000003 0.000001 0.000001 -3.004423 8.580149 -92.228044 7.096476 5.717424 -102.310278 -0.000002 -0.000001 -0.000001 10.874059 26.686432 2.331216 0.000000 0.000000 0.000000 -47.669878 38.728959 52.535650 0.000060 105.112670 -0.000060 -23.149328 9.982427 13.220413 -8.137366 -3.262900 -18.533811 25.834239 -37.721185 25.070353 5.882207 -26.134942 -20.631133 0.000003 0.000001 -0.000002 19.001462 -7.055791 89.797023 5.881616 -4.493658 105.259226 0.000001 0.000002 0.000000 10.888981 -6.283856 96.371503 5.608352 -4.559195 101.797720 0.000004 0.000000 -0.000003 4.247067 -6.963868 93.132457 6.482515 -4.285255 113.098364 0.000001 0.000001 0.000003 -4.332486 -7.193221 91.460106 5.648619 -4.550628 102.304745 -0.000001 -0.000001 0.000000 -26.462065 12.274604 19.865277 37.014851 -3.408096 0.570141 -0.704771 1.922000 -16.771811 -5.669391 0.000007 0.000005 -0.000001 0.000002 0.000000 -30.050397 1.090644 -19.738574 52.616379 1.852523 -7.567716 -14.881852 -3.907810 13.042957 -1.965100 -0.000014 0.000001 0.000000 0.000001 -0.000000 
-2.013455 90.869835 -3.037151 -10.380125 -50.574248 -0.774649 9.085361 0.209970 -4.490049 13.571644 1.134034 -5.519529 0.000000 0.000000 0.000000 13.568756 1.181521 -5.516788 3.692160 2.416214 -0.492109 -8.158099 37.043493 -7.461730 -0.000002 0.000000 -0.000000 -0.610938 -7.055526 1.499512 0.000000 0.000000 0.000000 -13.733019 19.141728 -55.614426 0.000023 -129.834642 0.000013 -19.817048 3.436071 27.557033 -2.360262 5.784478 9.581068 25.946466 36.287767 -25.056993 4.646441 20.408534 19.873194 -0.000000 0.000000 -0.000004 19.194867 8.579334 -88.660056 7.323517 5.663376 -104.599846 -0.000000 -0.000001 0.000000 12.119559 7.635051 -95.591387 6.983963 5.740699 -101.183331 -0.000001 -0.000001 0.000001 5.846709 8.203637 -91.657444 8.087078 5.408320 -112.502621 0.000002 -0.000000 -0.000000 -2.404189 8.317332 -90.638789 7.029833 5.731502 -101.642190 -0.000000 -0.000001 0.000002 10.915535 26.508840 1.381143 0.000000 0.000000 0.000000 -49.008786 38.270154 54.704962 -0.000092 102.389515 0.000092 -21.485270 5.843202 12.774779 -8.151710 -2.862865 -18.379820 25.543956 -37.497226 24.927991 5.851867 -25.820060 -20.570050 -0.000002 -0.000001 0.000001 18.460330 -7.470860 88.074319 5.823464 -4.509080 104.518198 -0.000000 0.000001 0.000000 10.585433 -6.567972 93.757583 5.554087 -4.570188 101.115616 -0.000001 0.000001 -0.000002 4.210442 -6.945335 91.402527 6.431082 -4.306771 112.411677 0.000003 -0.000001 0.000003 -3.701460 -6.935056 89.854957 5.596844 -4.561586 101.653104 -0.000002 -0.000001 -0.000001 -26.912011 10.659680 19.195424 36.044834 -2.845039 1.576148 2.355882 1.172441 -18.672586 -7.236299 -0.000002 -0.000001 -0.000000 -0.000002 -0.000000 -30.125536 0.807005 -19.469550 53.351246 1.647452 -7.037740 -15.569268 -5.148207 11.422584 -2.082038 -0.000020 -0.000005 0.000000 0.000000 -0.000000 
-2.423309 90.948471 -4.398233 -9.891557 -48.455083 -0.109501 11.212913 0.386599 -4.933141 13.743580 1.075063 -5.733797 0.000000 0.000000 0.000000 13.747226 1.106302 -5.720676 3.149081 2.157393 -0.468785 -10.603127 33.243927 -7.617215 0.000001 0.000000 -0.000000 -0.478520 -7.847192 1.562674 0.000000 0.000000 0.000000 -13.760015 17.595785 -53.833765 -0.000000 -130.472951 -0.000006 -26.342508 3.338056 38.063377 -2.492746 5.144800 9.383268 26.015584 36.353972 -25.038205 4.638037 20.509796 19.893063 -0.000002 0.000004 -0.000000 18.096001 9.066948 -86.267762 7.230555 5.686667 -103.659684 0.000000 0.000000 -0.000001 11.752362 7.931919 -92.818623 6.897051 5.757124 -100.315712 -0.000001 0.000002 -0.000003 5.951911 8.200381 -89.059110 8.004815 5.441521 -111.632407 0.000001 -0.000000 0.000001 -1.607694 8.030445 -88.546764 6.942065 5.748804 -100.764736 0.000000 -0.000001 0.000003 10.980233 26.274288 0.074706 0.000000 0.000000 0.000000 -50.899939 37.184007 56.537707 -0.000055 99.931302 0.000057 -19.681147 1.609453 12.204880 -8.172153 -2.337839 -18.178308 25.165069 -37.202217 24.744387 5.811818 -25.406668 -20.489758 0.000003 -0.000002 0.000000 17.731362 -7.972993 85.801253 5.746708 -4.528195 103.544097 -0.000003 0.000002 -0.000003 10.167338 -6.911344 90.323173 5.482530 -4.583604 100.219065 0.000001 0.000002 -0.000003 4.163213 -6.924107 89.132609 6.363076 -4.334126 111.508842 0.000000 0.000000 0.000000 -2.864777 -6.656045 87.741143 5.528655 -4.575091 100.796681 0.000001 -0.000002 -0.000000 -28.209359 8.482170 18.420967 35.463312 -1.927346 2.803131 6.187022 -0.492678 -20.171441 -8.253301 -0.000007 0.000006 -0.000000 0.000000 0.000000 -30.366273 0.447492 -19.173263 54.252394 1.570866 -6.312509 -15.984227 -6.852185 9.733945 -2.401861 0.000017 0.000002 -0.000000 -0.000001 -0.000000 
